<svg width="20" height="21" viewBox="0 0 20 21" fill="none" xmlns="http://www.w3.org/2000/svg">
<path d="M6.66699 15.5003L10.0003 12.9587L13.3337 15.5003L12.0837 11.3753L15.417 9.00033H11.3337L10.0003 4.66699L8.66699 9.00033H4.58366L7.91699 11.3753L6.66699 15.5003ZM10.0003 18.8337C8.84755 18.8337 7.76421 18.6149 6.75033 18.1774C5.73644 17.7399 4.85449 17.1462 4.10449 16.3962C3.35449 15.6462 2.76074 14.7642 2.32324 13.7503C1.88574 12.7364 1.66699 11.6531 1.66699 10.5003C1.66699 9.34755 1.88574 8.26421 2.32324 7.25033C2.76074 6.23644 3.35449 5.35449 4.10449 4.60449C4.85449 3.85449 5.73644 3.26074 6.75033 2.82324C7.76421 2.38574 8.84755 2.16699 10.0003 2.16699C11.1531 2.16699 12.2364 2.38574 13.2503 2.82324C14.2642 3.26074 15.1462 3.85449 15.8962 4.60449C16.6462 5.35449 17.2399 6.23644 17.6774 7.25033C18.1149 8.26421 18.3337 9.34755 18.3337 10.5003C18.3337 11.6531 18.1149 12.7364 17.6774 13.7503C17.2399 14.7642 16.6462 15.6462 15.8962 16.3962C15.1462 17.1462 14.2642 17.7399 13.2503 18.1774C12.2364 18.6149 11.1531 18.8337 10.0003 18.8337ZM10.0003 17.167C11.8614 17.167 13.4378 16.5212 14.7295 15.2295C16.0212 13.9378 16.667 12.3614 16.667 10.5003C16.667 8.63921 16.0212 7.06283 14.7295 5.77116C13.4378 4.47949 11.8614 3.83366 10.0003 3.83366C8.13921 3.83366 6.56283 4.47949 5.27116 5.77116C3.97949 7.06283 3.33366 8.63921 3.33366 10.5003C3.33366 12.3614 3.97949 13.9378 5.27116 15.2295C6.56283 16.5212 8.13921 17.167 10.0003 17.167Z" fill="white"/>
</svg>
