<svg width="20" height="20" viewBox="0 0 20 20" fill="none" xmlns="http://www.w3.org/2000/svg">
<path fill-rule="evenodd" clip-rule="evenodd" d="M1.5 10C1.5 5.30558 5.30558 1.5 10 1.5C14.6944 1.5 18.5 5.30558 18.5 10C18.5 14.6944 14.6944 18.5 10 18.5C5.30558 18.5 1.5 14.6944 1.5 10ZM10 0C4.47715 0 0 4.47715 0 10C0 15.5228 4.47715 20 10 20C15.5228 20 20 15.5228 20 10C20 4.47715 15.5228 0 10 0ZM6.78362 6.78412C6.49073 7.07702 6.49073 7.55189 6.78362 7.84478L8.93884 10L6.78362 12.1552C6.49073 12.4481 6.49073 12.923 6.78362 13.2159C7.07652 13.5088 7.55139 13.5088 7.84428 13.2159L9.9995 11.0607L12.1546 13.2158C12.4475 13.5087 12.9224 13.5087 13.2153 13.2158C13.5082 12.9229 13.5082 12.448 13.2153 12.1551L11.0602 10L13.2153 7.84485C13.5082 7.55196 13.5082 7.07708 13.2153 6.78419C12.9224 6.4913 12.4475 6.4913 12.1546 6.78419L9.9995 8.93934L7.84428 6.78412C7.55139 6.49123 7.07652 6.49123 6.78362 6.78412Z" fill="#344054"/>
</svg>
